<svg width="75" height="51" viewBox="0 0 75 51" fill="none" xmlns="http://www.w3.org/2000/svg">
<path d="M64.5358 25.6651H59.1794V50.8667H64.5358V25.6651Z" fill="#FF4791"/>
<path d="M74.5237 40.9303L74.5237 35.6016L49.1914 35.6016L49.1914 40.9303L74.5237 40.9303Z" fill="#FF4791"/>
<g clip-path="url(#clip0_6_401)">
<path d="M40.0875 43.2047L32.6527 50.7955H0V0H24.2771C38.5398 0 49.1307 9.87106 49.1307 23.3125C48.8895 30.8633 45.6389 38.0137 40.0875 43.2047ZM4.21814 3.93042V46.865H30.9533L37.235 40.4144C39.6414 38.2259 41.5856 35.5879 42.9554 32.6526C44.3252 29.7173 45.0936 26.5429 45.216 23.3125C45.216 12.0013 36.4156 3.93042 24.2771 3.93042H4.21814ZM34.2307 37.174L29.3146 42.1845H8.46663V8.61093H24.2771C26.3872 8.50952 28.4963 8.83218 30.4768 9.55939C32.4573 10.2866 34.2681 11.4033 35.7998 12.8419C37.3315 14.2806 38.5523 16.0113 39.3883 17.9296C40.2244 19.8479 40.6584 21.9138 40.6641 24.0026C40.5459 26.5136 39.9149 28.975 38.8093 31.2386C37.7037 33.5022 36.1462 35.5211 34.2307 37.174ZM12.5634 12.5413V38.2241H27.7365L31.4995 34.3837C34.5353 31.727 36.398 28.0006 36.6887 24.0026C36.6838 22.4294 36.3531 20.8739 35.7169 19.4319C35.0808 17.9899 34.1527 16.692 32.9898 15.6182C31.8269 14.5444 30.454 13.7174 28.9555 13.1883C27.4571 12.6591 25.8649 12.4389 24.2771 12.5413H12.5634ZM28.7987 31.1434L26.371 33.5736H16.8422V17.2219H24.2771C25.2988 17.1521 26.3242 17.2902 27.2899 17.6275C28.2556 17.9648 29.1411 18.4942 29.8918 19.183C30.6426 19.8718 31.2425 20.7055 31.6547 21.6324C32.0669 22.5594 32.2826 23.5601 32.2885 24.5726C32.0186 27.1237 30.7696 29.4754 28.7987 31.1434ZM20.4838 20.7622V30.0032H24.7019L26.1282 28.5931C26.7618 28.1414 27.2977 27.5689 27.7042 26.9093C28.1107 26.2498 28.3797 25.5165 28.4952 24.7527C28.4929 24.1983 28.3747 23.6503 28.1479 23.1433C27.9212 22.6362 27.5908 22.181 27.1775 21.8063C26.7643 21.4315 26.2771 21.1453 25.7467 20.9656C25.2162 20.786 24.6538 20.7167 24.095 20.7622H20.4838Z" fill="#FFF16F"/>
</g>
<defs>
<clipPath id="clip0_6_401">
<rect width="49.1914" height="50.7955" fill="white"/>
</clipPath>
</defs>
</svg>
